<?xml version="1.0" encoding="utf-8"?>
<!-- Generator: Adobe Illustrator 21.0.0, SVG Export Plug-In . SVG Version: 6.00 Build 0)  -->
<svg version="1.1" id="Layer_1" xmlns="http://www.w3.org/2000/svg" xmlns:xlink="http://www.w3.org/1999/xlink" x="0px" y="0px"
	 viewBox="0 0 1000 1000" style="enable-background:new 0 0 1000 1000;" xml:space="preserve">
<style type="text/css">
	.st0{fill:#FFFFFF;}
</style>
<path class="st0" d="M312.8,611V395.3h11.7v33.9c1.4-1.5,2.7-3.1,3.8-4.8c9.8-20.3,30.4-33.1,52.9-32.8c26.7-0.8,48.4,9.1,61.1,32.8
	c16.4,29.9,17.4,66,2.5,96.7c-11.9,26.6-41.2,39.8-72.6,35c-19.8-1.7-37.5-13.3-46.8-30.9V611L312.8,611z M324.5,471.6l2.6,25.3
	c4.6,28.8,21.7,45.9,48.4,49.1c25.9,4.3,51.2-10.4,60.5-35c10.4-24.8,9.6-52.9-2.1-77.1c-9.8-22-33-34.8-56.8-31.4
	c-22.3,1.6-41.1,17.2-46.9,38.8C327.8,451.3,325.8,461.4,324.5,471.6L324.5,471.6z M694.2,500.9c-3.7,31.4-30,55.3-61.7,55.8
	c-49.1,2.5-72.1-30.1-75.8-67.7c-2.5-20.4,0.8-41.1,9.6-59.8C578.9,403,607,388,635.8,392c27.3,2.3,50.1,21.9,56.6,48.5
	c2.5,11.8,4.3,23.8,5.5,35.9H569c-2.4,34.1,15.9,61.5,41.9,68.1c32.3,8,60-6.1,70-36.8C683.1,499.8,687.2,498.7,694.2,500.9
	L694.2,500.9z M568.9,465.5h115.3c-0.7-36.3-23.3-62.7-54-63C595.5,401.9,570.4,427.2,568.9,465.5z M718.1,501.7h11.3
	c0.8,17,11.1,32,26.6,39c19.3,8.7,41.6,8.1,60.4-1.6c10.4-4.7,16.7-15.3,15.9-26.7c0.6-11-6.2-21-16.6-24.6
	c-12.4-4.6-25.6-7.2-38.3-11.2c-13.2-3.8-26.1-8.5-38.6-14.1c-20.4-10-21.7-48.8,1.4-61c24-13.6,53.3-14,77.8-1.2
	c14.9,8.2,23.2,24.9,20.7,41.7h-9.7c0-0.5-0.9-0.9-0.9-1.4c-1.2-30.9-27.2-40.6-55-37.8c-8.4,0.9-16.4,3.5-23.9,7.2
	c-9.2,4.2-14.8,13.8-13.9,23.9c0,10.1,6.4,19.1,15.9,22.5c12.2,4.5,25.1,7.3,37.7,10.8l30.4,8c14.2,4.6,24,17.5,24.7,32.4
	c2.4,16.3-5.9,32.4-20.6,39.8c-26.6,15.1-70.4,11.1-89.9-8C723.6,529.5,718,515.9,718.1,501.7L718.1,501.7z M987.5,442h-10.6
	c0-1.4-0.6-2.8-0.7-3.9c-0.3-16.4-12.1-30.3-28.2-33.3c-14.7-4.2-30.4-3.5-44.7,2.2c-11.6,3.3-19.6,13.9-19.7,25.9
	c-0.4,11.9,7.6,22.4,19.1,25.2l48.4,12.4c5.2,1.3,10.4,2.8,15.4,4.7c15.4,5.6,25.9,20,26.4,36.3c0.5,16.4-9.2,31.4-24.3,37.8
	c-22.7,10.3-48.8,10.6-71.7,0.7c-19.1-8.2-31.1-27.5-30-48.3h10.4c3.9,18.8,16.8,34.4,34.5,41.8c17.7,7.4,37.9,5.6,54-4.8
	c9.9-5.1,15.8-15.5,15.3-26.6c0.5-11-6.4-21-16.8-24.5c-12.4-4.6-25.6-7.1-38.3-11.2c-13.3-3.7-26.2-8.4-38.8-13.9
	c-19.9-9.8-21.5-48.3,1.2-60.5c24.4-14.1,54.4-14.5,79-0.9c14.2,8.5,22,24.5,20,40.9L987.5,442z M293.6,552.8
	c-8.6,3.3-18.3-0.4-22.6-8.6l-41.2-57l-6-8l-47.8,65c-4,7.8-13.2,11.4-21.5,8.4l61.6-82.6l-57.3-74.6c8.5-3.1,18,0.3,22.7,8
	l42.7,57.7l42.9-57.4c4.1-7.7,13.2-11.1,21.4-8l-22.2,29.5l-30.1,39.2c-3.3,2.9-3.6,8-0.6,11.2c0.2,0.2,0.4,0.4,0.6,0.6l57.4,76.6
	L293.6,552.8z M555,394.7v11.2c-31.8-2.1-59.3,22-61.4,53.9c-0.1,1.9-0.2,3.9-0.1,5.8c0,26.2,0,52.5,0,78.7v8.9h-11.4V395.4h11.2
	v32.3C507.1,404.1,528.4,395.4,555,394.7L555,394.7z M7,469.1l5-24.8c13.8-49,69.9-69.4,108.6-39c22.6,17.8,28.3,42.9,27.2,71.3
	H20.3c-2.1,50.7,34.5,81.3,81.3,65.6c15.4-5.6,27-18.4,30.8-34.3c2.5-8,6.6-9.3,14-7c-2.5,19.7-13.9,37.1-30.9,47.2
	c-28.4,15.5-63.6,11-87.2-11.1C16.9,524.1,10,508,8.7,490.9c0-2.8-0.9-5.4-1.6-8C7,478.2,7,473.6,7,469.1L7,469.1z M20.5,465.6
	h115.3c-0.7-36.7-23.9-62.8-54.8-63c-34.4-0.5-59,25-60.5,62.9L20.5,465.6z"/>
</svg>
