<?xml version="1.0" encoding="utf-8"?>
<!-- Generator: Adobe Illustrator 21.0.0, SVG Export Plug-In . SVG Version: 6.00 Build 0)  -->
<svg version="1.1" id="Layer_1" xmlns="http://www.w3.org/2000/svg" xmlns:xlink="http://www.w3.org/1999/xlink" x="0px" y="0px"
	 viewBox="0 0 1000 1000" style="enable-background:new 0 0 1000 1000;" xml:space="preserve">
<style type="text/css">
	.st0{fill:#599636;}
	.st1{fill:#6CAC48;}
	.st2{fill:#C2BFBF;}
	.st3{fill:#F4F4F4;}
	.st4{fill:#CCCCCC;}
</style>
<path class="st0" d="M90.6,310.7l10.2,19.1c2.2,3.5,4.8,6.7,7.7,9.6c8.5,8.5,16.6,17.5,23.9,27c17.3,22.7,28.9,47.8,37.2,75.1
	c5,16.6,7.7,33.7,7.9,50.9c0.8,51.6-16.8,95.8-52.6,132.7c-5.8,5.8-12.1,11.2-18.7,16c-3.5,0-5.2-2.8-6.7-5.2
	c-2.8-4.7-4.4-9.8-5.2-15c-1.3-6.2-2.1-12.5-1.7-18.9v-2.9C92.4,598.4,89.3,312.1,90.6,310.7L90.6,310.7z"/>
<path class="st1" d="M90.6,310c-0.4-0.8-0.8-0.2-1.3,0.2c0.2,4.2-1.3,7.9-3.5,11.4c-2.5,3.5-5.8,6.2-9.1,9.1
	c-18.5,16-33.1,35.3-44.7,57C16.5,416.9,8.4,448.1,6.1,481c-1,11.9,3.7,53.6,7.5,65.7c10.2,32,28.5,58.8,52.3,82.1
	c5.8,5.6,12.1,10.8,18.5,15.8c1.9,0,2.1-1.7,2.5-2.9c0.8-2.7,1.4-5.4,1.9-8.1c1.9-10.4,2.9-20.8,4.2-31.2L90.6,310L90.6,310z"/>
<path class="st2" d="M100.8,653.7c0.4-4.8,2.8-8.7,5.2-12.7c-2.5-1-4.4-3.1-5.8-5.4c-1.3-2.1-2.3-4.7-3.1-6.9
	c-2.9-8.7-3.5-17.9-4.4-26.8v-5.4c-1,0.8-1.3,7.9-1.3,8.9c-0.6,9.6-1.9,18.9-3.7,28.1c-0.6,3.7-1,7.5-3.3,10.8c0,0.4,0,0.8,0.2,1.5
	c3.7,11,4.8,22.2,5.4,33.7v4.2c0,5-0.2,3.9,3.9,5.6c1.7,0.6,3.5,0.8,5.2,2.1c1.3,0,1.5-1,1.5-1.9l-0.6-6.9v-19.1
	C99.7,660.2,100.4,656.8,100.8,653.7L100.8,653.7z"/>
<g transform="matrix(1.021124 0 0 1.021124 -4.376266 -1.845946)">
	<path class="st3" d="M257.6,556.9v19.4c0,0.8,0,1.5,0.1,2.3c0.3,2.3,1.7,3.7,3.7,4.3c1.9,0.5,3.9,0.9,5.9,1.1
		c1.1,0.1,1.5,0.6,1.7,1.9c0.1,4.3-0.3,4.9-4.5,4.6c-9.8-0.5-19.7-0.6-29.5,0h-0.9c-3.1,0.1-3.3-0.1-3.3-3.2c0-0.5,0.1-1.1,0.1-1.7
		c0-0.9,0.6-1.4,1.5-1.4c2.1-0.3,4-0.8,5.9-1.1c2.7-0.6,4.2-2.3,4.5-5c0.4-2.9,0.4-6,0.4-8.9l0.1-34.2c0.1-2-1-3.9-2.8-4.9
		c-2.3-1.3-4.8-2.3-7.3-3.1c-0.8-0.3-1.5-0.4-2.2-0.8c-1.9-0.9-1.9-2.5-0.1-3.6c0.6-0.4,1.4-0.6,2.2-0.8c7.7-1.1,15.4-3.1,22.7-5.7
		c1.5-0.5,1.9-0.4,2.1,1.1c0.1,0.9,0,2.1-0.1,2.9c-0.3,1.7-0.3,3.3-0.3,4.9c0,0.6,0.1,1.3,0.8,1.7s1.3,0,1.9-0.4
		c2.7-2.1,5.4-4,8.3-5.6c4.2-2.3,8.7-4.3,13.5-5c5.9-0.8,11,0.8,15.4,4.6c1.8,1.7,3.5,3.5,4.8,5.6c1.3,1.9,1.4,1.9,3.1,0.6
		c4.9-3.6,10-6.8,15.4-9.1c5.7-2.4,11.6-2.8,17.5-0.8c6,2.2,10.1,6.4,12.5,12.1c2.1,4.6,2.9,9.3,2.9,14.3v34.2
		c0,2.3,0.9,3.7,3.2,4.9c2.4,0.9,5.1,1.4,7.7,1.9c1.7,0.4,1.7,0.4,1.7,2.1c-0.3,4.2-0.6,4.5-4.7,4.2c-10.2-0.6-20.5-0.6-30.7,0
		c-2.1,0.1-2.1,0.1-2.2-1.9V588c-0.1-3.5-0.1-3.5,3.2-4.2l3.3-0.9c2.3-0.5,3.9-2.6,4-5l0.4-9.6l-0.3-25c-0.1-2.2-0.6-4.4-1.4-6.5
		c-3.2-7.8-10.2-10.6-17-9.8c-5.1,0.5-9.6,2.5-13.8,5.5c-0.9,0.6-1.5,1.4-1.4,2.7c1.1,8.2,0.4,16.3,0.5,24.5v17.7
		c0,3.2,1.3,4.7,4.3,5.5l5.9,1.3c0.9,0.1,1.4,0.5,1.4,1.5v0.9c-0.1,3.6-0.4,3.7-4,3.7c-10.2-0.5-20.4-0.4-30.5,0
		c-3.5,0.1-3.7-0.3-3.6-3.7c0.1-2.1,0.4-2.2,2.3-2.5l4.2-0.8c3.7-0.8,5.1-2.2,5.4-6.1l0.4-8.6l-0.3-25.6c-0.3-3.2-0.9-6.3-2.7-9.2
		c-2.5-4.7-6.5-7.1-12-7.4c-5.5-0.4-10.3,1.7-14.9,4.2c-3.2,1.9-4.6,4.1-4.3,7.8V557L257.6,556.9z M498,557.6v18
		c0,1.3,0.1,2.6,0.3,3.8c0.1,1.7,1.4,3.2,3.1,3.6c2.2,0.6,4.5,1,6.8,1.1c1.3,0.1,1.5,0.6,1.7,1.7v0.9c-0.1,4.5-0.6,5-5,4.7
		c-9.7-0.6-19.4-0.5-29.1,0l-3.7,0.1c-0.8,0-0.9-0.4-1.1-0.9c-0.4-1.8-0.4-3.6,0-5.4c0.1-0.8,0.6-0.9,1.4-1.1
		c1.9-0.3,3.5-0.6,5.2-0.9c3.2-0.8,4.3-2.1,4.5-5.4l0.4-10.7v-31.4c0-2.3-0.9-3.7-2.9-4.7c-2.3-1.3-4.7-2.2-7.3-3.1
		c-0.8-0.3-1.5-0.5-2.2-0.9c-1.7-1.1-1.9-2.8-0.3-4.1c0.7-0.6,1.6-1,2.5-1c8.2-1.3,16.1-3.1,23.7-6.1c0.9-0.4,1.3-0.1,1.7,0.6
		c0.4,0.8,0.5,1.7,0.4,2.5l-0.4,6c0,0.8-0.4,1.9,0.3,2.2c0.8,0.5,1.3-0.6,1.9-0.9c3.8-3.2,7.9-5.8,12.4-7.9c4-1.9,8-3.1,12.6-2.8
		c8.6,0.5,14.7,4.9,18.6,12.4c2.1,4,2.9,8.3,3.3,12.8l0.4,9.3l0.1,28.2c0.1,2.2,0.9,3.6,3.1,4.3c2.2,0.7,4.6,1.3,6.9,1.7
		c2.1,0.3,2.2,0.6,2.3,2.5v0.6c-0.3,4.3-0.5,4.5-4.9,4.2c-9.5-0.5-19.1-0.5-28.6,0c-1.3,0.1-2.5,0-3.7,0.1c-0.8,0-1.3-0.1-1.4-0.9
		c-0.3-1.7-0.5-3.3-0.1-5.1c0.1-0.8,0.5-1.1,1.4-1.3l5.9-0.9c2.1-0.5,3.2-1.9,3.5-3.7l0.3-3.6l-0.1-26.7c0-3.1-0.1-6.1-0.8-9.2
		c-1.5-6.5-6.5-11.2-13.3-11.9c-5.9-0.6-11.2,0.9-16.1,4.1c-2.4,1.5-3.5,3.7-3.5,6.4v19.3c0-0.4,0-0.4,0.1-0.4L498,557.6z"/>
	<path class="st4" d="M871.7,521.5c-1.4-9.3-4.9-17.6-10.8-24.9c-5.2-6.4-12-11.4-19.7-14.5c-8-3.3-16.6-4.3-25.3-4.6
		c-3.6-0.1-52.3,0.6-55.9,0c-0.9-0.1-1.5,0.1-2.1,0.9c-0.6,0.9-1.3,1.9-1.7,2.9c-1.5,3.5-1.5,3.2,2.2,3.7c3.1,0.5,6,0.8,8.9,1.7
		c2.7,0.9,4.6,2.4,5.2,5.4c0.3,1.4,0.5,46.3,0.5,67.2l-0.5,14.9c-0.1,1.1-0.3,2.3-0.6,3.3c-0.5,1.5-1.4,2.8-2.9,3.5
		c-1.7,0.8-3.5,1.3-5.4,1.4c-3.5,0.4-4,0.5-5.1,4.3l-0.4,1.4c-0.3,1.7-0.1,1.9,1.5,1.9l38.1,0.4l14.9-0.3l10.3-1.3
		c11.7-2.2,22.2-7,31.1-14.8c5.1-4.5,9.3-10,12.2-16.1c3.6-7.1,5.1-14.9,5.5-22.8C872.7,530.7,872.4,526.1,871.7,521.5L871.7,521.5z
		 M853.2,539.6c-0.5,8.2-2.2,16.1-6.4,23.2c-5.4,9.3-13,15.8-23.6,18.1c-4.6,0.9-9.2,1.4-14,0.8c-3.5-0.4-6.8-0.8-10-1.9
		c-5.7-2.1-7.8-5.6-7.9-11.2l-0.1-76.9c0-4.6,2.1-5.6,5.4-5.7c5-0.4,10.1-0.3,15.1,0.3c5.3,0.5,10.5,1.8,15.4,3.7
		c3.7,1.5,7.1,3.6,10.1,6.3c6.9,5.9,11.5,13.3,14,21.9c2.1,7,2.4,14.2,2.1,21.3L853.2,539.6z M977.7,552.1c0-0.8,0-1.4-0.1-2.2
		c-1.1-7-4.9-12.4-10.6-16.5c-3.7-2.7-7.9-4.5-12.2-5.7c-0.8-0.3-1.4-0.5-2.2-0.6c0.1-0.6,0.5-0.8,0.9-0.9c2.5-1.3,5-2.7,7.1-4.6
		c4-3.3,6.5-7.4,7.9-12.4c0.8-2.7,0.8-5.4,0.5-8.2c-0.4-6.7-3.9-12.8-9.3-16.6c-5.9-4.3-12.8-6.1-19.9-6.3c-13.8-0.3-27.7,0-41.5,0
		c-4,0-7.9,0.3-12-0.4c-0.8-0.1-1.9-0.4-2.4,0.5c-0.9,1.7-2.1,3.3-2.4,5.2c-0.1,0.9,0.1,1.4,1.1,1.5l8.8,1.3
		c3.5,0.5,5.9,2.4,6.1,5.5c0.3,2.1,0.4,4.2,0.4,6.4l-0.3,23.9l-0.1,47.2c0,2.8-0.4,5.5-0.9,8.3c-0.3,1.8-1.6,3.3-3.3,3.8
		c-2.5,0.8-5,1.5-7.7,1.5c-1.5-0.1-2.9,0.8-3.3,2.2c-0.5,1.1-0.9,2.4-1.1,3.6c-0.3,1.5,0.1,2.1,1.7,1.9c1.1-0.1,43.3,0.9,51.2,0.1
		c4.7-0.5,9.3-1.1,14-2.5c8-2.5,15.4-6.3,21.3-12.5c4.9-5.1,7.7-11.2,7.9-18.4C977.7,555.7,977.7,554,977.7,552.1L977.7,552.1z
		 M915.8,499.9l0.4-10.2c0-1.9,0.8-2.8,2.7-3.2c3.1-0.6,6.1-0.4,9.2-0.3c3.1,0.3,6,0.6,9.1,1.5c5.6,1.7,10,4.9,12.5,10.2
		c1.2,2.4,1.8,5.1,1.8,7.8c0.1,3.6-0.1,7-1.5,10.5c-2.2,4.7-5.6,7.8-10.6,8.7c-5,0.9-19.1,0.5-21.3,0.5c-1.9,0-2.1-0.3-2.1-2.2v-12
		c-0.3-3.7-0.3-7.5-0.1-11.2L915.8,499.9z M957.3,568.5c-2.2,5.7-6.1,9.7-11.7,11.9c-3.1,1.1-6.1,1.9-9.3,1.7c-4-0.1-7.9,0-11.9-0.8
		c-5.4-1.1-7.8-6.3-8.2-10c-0.6-6.5-0.3-13.1-0.4-18v-16.8c0-2.1,0.3-2.7,2.4-2.7l12,0.1l8.2,0.9c5.7,1.3,11,3.5,15.1,7.9
		c3.3,3.6,5.1,7.9,5.5,12.6c0.4,4.5,0.1,8.8-1.5,13L957.3,568.5z"/>
	<path class="st3" d="M633.1,530.1l3.3,0.5c3.6,0.1,7.8-1.1,9.1-6.1c0.7-2.4,0.7-4.9,0-7.3c-0.8,0-1.1,0.6-1.5,0.9
		c-1.9,1.5-4.1,2.4-6.4,2.7c-4.6,0.5-9.2,0.3-13.6-1.4l-6.3-2.2c-4.4-1.4-9-2-13.5-1.8c-6.5,0.5-12.6,2.7-18.4,5.7
		c-6.1,3.3-10.5,8.3-12.5,15.1c-1.1,4-1.3,8-0.8,12.1c1.3,9.3,6.1,15.8,14.8,19.3c0.5,0.1,0.9,0.4,1.4,0.5c1.1,0.6,1.3,1.3,0.3,2.2
		l-3.2,2.2l-7.7,4.7c-1.9,1.1-2.2,2.1-1.5,4.1c0.8,2.4,2.2,4.5,4.1,6.1c1.8,1.5,3.7,2.7,5.9,3.6c1.4,0.6,1.4,0.9,0.1,2.1l-7.3,5.2
		c-2.4,1.9-4.9,3.7-6.9,6.1c-2.9,3.1-4,7.4-3.1,11.5c0.9,4.4,3.3,8.4,6.6,11.5c3.3,3.1,7.4,5.3,11.7,6.4c7.1,2.1,14.5,2.2,21.8,0.8
		c10.5-1.9,19.6-6.5,26.8-14.4c5-5.2,7.9-11.4,8.2-18.7c0.6-8.7-5.3-16.6-13.8-18.6l-6.9-1.3l-21.1-1.9c-2.3-0.1-4.6-0.5-6.5-1.7
		c-2.4-1.5-3.1-4.5-1.5-6.4c1.1-1.4,2.5-2.3,4.3-2.4l4.1-0.4c8.1-0.8,15.6-4.3,21.6-9.8c3.2-2.9,5.4-6.7,6.5-10.8
		c1.5-5.5,1.5-11.2,0.3-16.8C631.1,529.9,631.3,529.8,633.1,530.1L633.1,530.1z M601.8,593.6c0.8,0.1,1.5,0,2.3,0
		c5.4,0.3,10.8,0.6,16.1,2.1c1.7,0.5,3.4,1.1,5,1.9c5.1,2.8,7,7.7,6.4,12.9c-0.8,5.7-4,9.8-8.9,12.5c-3.3,1.9-7,2.7-10.8,3.1
		c-1.4,0.1-2.7,0-4.1,0c-4.5,0.1-8.8-0.4-13-2.2c-2.9-1.1-5.4-2.8-7.5-5.1c-4.5-4.5-6.5-12.6,0.1-19.3
		C591.4,595.8,596,593.1,601.8,593.6z M616.4,553.8c-2.7,6.8-8.6,8.8-14.4,7.9c-5.4-0.8-9.3-3.7-11.9-8.6
		c-3.3-6.5-4.2-13.3-2.3-20.3c1.4-5.2,4.6-9.2,10.2-10.1c7.1-1.3,14,1.3,17.6,8.4c1.9,3.5,2.7,7.7,2.7,13.6
		C618.2,547.3,617.7,550.6,616.4,553.8L616.4,553.8z M455.6,545.1c-1.1-6.9-3.7-13.1-8.4-18.4c-7-7.8-15.9-11.2-26-11.2
		c-8.8-0.1-17.1,2.4-24.5,7c-7.3,4.4-12.6,11.3-14.9,19.5c-2.2,7.4-2.1,14.9-0.4,22.5c4.5,20.2,20,28.8,38.7,27.6
		c5.5-0.4,10.7-2.2,15.7-4.6c7.4-3.5,12.8-8.9,16.5-16.2c2.9-6,4.2-12.4,4.1-19.7L455.6,545.1L455.6,545.1z M437.5,573.5
		c-1.9,5.9-7,10.1-13.1,10.7c-5.6,0.8-10.8-0.6-15.6-4c-3.4-2.5-6.2-5.8-8-9.6c-5.2-10.7-6.1-21.9-3.5-33.4c0.9-3.6,2.7-6.8,5.4-9.3
		c4.7-4.3,10.2-5.4,16.3-4.1c5.9,1.3,10.3,4.5,14,9.3c3.7,4.9,5.4,10.5,6.4,16.3c0.5,2.9,0.5,6,0.6,7.9
		C440,563.5,439.5,568.6,437.5,573.5L437.5,573.5z M734.4,546.2c-0.9-7.4-3.7-14.2-8.9-19.8c-6.9-7.5-15.8-10.7-25.8-10.8
		c-8.6-0.1-16.5,2.3-23.7,6.5c-8.2,4.9-13.8,11.7-15.9,21.1c-2.6,10.2-1.5,20.9,3.1,30.4c4.2,8.9,11.4,14.7,20.8,17.2
		c10.5,2.8,20.4,1.5,30.1-3.2c8.4-4.1,14.4-10.5,17.9-19.1c2.1-5.1,2.8-10.6,2.9-17C734.9,550.2,734.7,548.2,734.4,546.2
		L734.4,546.2z M716.8,571.8c-2.1,6.9-6.4,11.4-13.6,12.4c-5.4,0.8-10.5-0.5-15.1-3.6c-4-2.7-6.8-6.3-8.8-10.5
		c-2.3-4.5-3.6-9.2-4.1-14c-0.8-6-0.8-11.9,0.6-17.9c0.3-1.2,0.7-2.3,1.1-3.4c3.6-8.9,11.5-13,20.8-11c6.3,1.4,11,4.9,14.5,10.1
		c3.5,5.1,5.1,10.7,5.9,16.8c0.4,2.4,0.5,5,0.4,7.1c0,5-0.4,9.6-1.9,14L716.8,571.8z"/>
</g>
</svg>
